PathFileType	4	(X/Y/Z)	SUBJ59_1_walk_RCNL2025.trc
DataRate	CameraRate	NumFrames	NumMarkers	Units	OrigDataRate	OrigDataStartFrame	OrigNumFrames
100	100	12	25	mm	100	302	345
Frame#	Time	R_Shoulder			L_Shoulder			C7			J_Notch			R_Elbow			L_Elbow			R_Wrist			L_Wrist			R_Asis			L_Asis			Sacral			Thoracic			Sternum			R_Thigh_Lateral			R_Knee_Lateral			R_Shank_Lateral			R_Ankle_Lateral			R_Heel			R_Toe			L_Thigh_Lateral			L_Knee_Lateral			L_Shank_Lateral			L_Ankle_Lateral			L_Heel			L_Toe		
		X1	Y1	Z1	X2	Y2	Z2	X3	Y3	Z3	X4	Y4	Z4	X5	Y5	Z5	X6	Y6	Z6	X7	Y7	Z7	X8	Y8	Z8	X9	Y9	Z9	X10	Y10	Z10	X11	Y11	Z11	X12	Y12	Z12	X13	Y13	Z13	X14	Y14	Z14	X15	Y15	Z15	X16	Y16	Z16	X17	Y17	Z17	X18	Y18	Z18	X19	Y19	Z19	X20	Y20	Z20	X21	Y21	Z21	X22	Y22	Z22	X23	Y23	Z23	X24	Y24	Z24	X25	Y25	Z25
302	3.01000000	885.039795	1444.852783	498.660980	868.530884	1476.546265	97.735085	787.770935	1550.456055	304.470032	946.055176	1446.674316	296.540527	897.975159	1139.102295	603.635925	772.233154	1150.529541	-2.506209	1037.730133	897.460968	591.289490	755.964996	883.070374	-17.126838	931.058533	986.859009	408.516418	948.692566	988.424927	185.110184	722.829102	1013.954468	274.230560	716.253479	1334.536255	283.196381	996.925598	1253.304932	291.600311	793.891602	597.746521	469.179901	762.133057	507.221405	409.542999	721.238037	309.090057	473.684143	658.226318	71.925499	349.415131	620.085327	64.957642	303.904755	820.251404	44.515728	319.760010	968.013977	609.832458	80.419708	1011.753662	513.877625	135.116608	1028.630859	321.026886	72.431450	1073.567871	92.794075	145.184113	1040.441406	62.314133	205.157883	1235.672241	81.091843	172.068985
303	3.02000000	895.083130	1443.476440	497.613037	878.807434	1474.579834	96.567230	798.022095	1548.871826	303.127197	956.283386	1444.857300	295.596710	909.488647	1138.510986	603.609253	780.349609	1148.707642	-2.782133	1051.254089	898.151917	590.518616	764.705109	880.854706	-15.906110	940.347412	985.444397	408.532471	959.087036	986.326172	185.186508	733.193726	1012.819092	272.819916	726.280518	1333.124390	281.997467	1006.862732	1251.446411	291.322876	799.981201	597.246948	469.017456	767.457458	506.986877	409.309570	724.129639	309.298950	473.497467	658.466248	72.709862	349.337555	620.363159	65.998558	303.758850	820.408691	44.318737	319.836700	973.852783	605.646606	81.115845	1020.826050	511.270538	136.574249	1046.499023	319.637939	73.183289	1100.140137	92.906860	145.612747	1067.414917	61.203621	205.149475	1262.603882	86.754875	174.907166
304	3.03000000	905.213562	1442.070190	496.444580	889.214661	1472.625122	95.321587	808.335022	1547.288940	301.699188	966.578552	1443.043213	294.567871	920.833313	1137.873291	603.454956	788.807556	1146.855347	-3.164481	1064.404663	898.689240	589.678619	774.042480	878.593414	-14.613366	949.750916	984.056580	408.531433	969.513733	984.255432	185.232666	743.757019	1011.531067	271.398956	736.388428	1331.703003	280.686493	1016.862915	1249.599243	290.946228	806.344238	596.764282	468.848480	773.040283	506.780518	409.085968	727.200134	309.574219	473.307831	658.774292	73.623062	349.296570	620.692871	67.217857	303.659332	820.550354	44.141083	319.902649	979.645874	601.583191	81.899574	1029.888062	508.829926	138.012238	1063.439697	318.633789	74.000793	1124.532104	93.401337	146.206863	1092.156250	60.510635	205.297745	1287.170044	92.265068	177.802307
305	3.04000000	915.423889	1440.666138	495.154968	899.743469	1470.690063	94.002907	818.715454	1545.735107	300.189453	976.937439	1441.263184	293.455048	932.002380	1137.213135	603.159546	797.635315	1144.975952	-3.639934	1077.159241	899.069397	588.779510	783.968079	876.305847	-13.262668	959.274353	982.707642	408.511108	979.972351	982.246216	185.240982	754.429321	1010.104309	270.034546	746.580566	1330.292969	279.280304	1026.934326	1247.794922	290.474701	812.948608	596.331543	468.693604	778.877014	506.611694	408.888702	730.450867	309.941772	473.139587	659.155334	74.689522	349.306793	621.083313	68.631744	303.620422	820.677551	43.988464	319.967224	985.757874	597.815796	82.785934	1039.054565	506.589905	139.389709	1079.298706	317.864685	74.896187	1146.458252	94.004166	147.011627	1114.384277	60.010723	205.689072	1309.149536	97.211311	180.644760
306	3.05000000	925.705322	1439.297852	493.749786	910.379761	1468.785767	92.615555	829.167419	1544.234497	298.597046	987.359680	1439.547607	292.258270	942.994873	1136.554810	602.715210	806.854370	1143.074341	-4.196690	1089.492126	899.291473	587.826843	794.469330	874.013153	-11.873181	968.924438	981.409729	408.469147	990.468567	980.324829	185.206985	765.121155	1008.564636	268.787994	756.859680	1328.914185	277.796021	1037.087280	1246.063232	289.909180	819.761658	595.977234	468.573456	784.963257	506.487640	408.734741	733.883972	310.425140	473.023956	659.613098	75.926460	349.388580	621.541077	70.252106	303.660339	820.796326	43.861477	320.042694	992.567749	594.493042	83.752251	1048.438599	504.559753	140.670105	1093.952393	317.149841	75.880089	1165.679199	94.440735	148.073273	1133.860229	59.501682	206.412064	1328.368408	101.160049	183.349808
307	3.06000000	936.048889	1438.000122	492.239655	921.106628	1466.927612	91.161850	839.692993	1542.807983	296.920288	997.848083	1437.922974	290.975891	953.811340	1135.921753	602.119385	816.478210	1141.155640	-4.823019	1101.375671	899.358643	586.824158	805.529510	871.736267	-10.468456	978.707825	980.174866	408.403198	1001.015442	978.510315	185.131592	775.766113	1006.945923	267.704071	767.228638	1327.585449	276.247162	1047.333252	1244.429810	289.247437	826.759033	595.721008	468.504700	791.300781	506.411804	408.637787	737.504517	311.038116	472.989899	660.153687	77.341713	349.564819	622.070068	72.088409	303.800507	820.916077	43.755222	320.139282	1000.408142	591.722778	84.750847	1058.122070	502.725800	141.839005	1107.315918	316.311401	76.964035	1182.036743	94.474648	149.417603	1150.417969	58.822941	207.519501	1344.727295	103.714455	185.867279
308	3.07000000	946.447876	1436.807739	490.638123	931.907410	1465.134399	89.641502	850.292969	1541.474487	295.159576	1008.407532	1436.411865	289.605164	964.449585	1135.335449	601.373413	826.514038	1139.227295	-5.509595	1112.783875	899.277496	585.776093	817.128632	869.494659	-9.075100	988.630554	979.015625	408.311188	1011.634888	976.818237	185.020370	786.339783	1005.297424	266.795380	777.690063	1326.325439	274.644562	1057.683716	1242.915649	288.486084	833.931946	595.571472	468.499084	797.901184	506.383545	408.605438	741.322937	311.782440	473.056427	660.785339	78.938995	349.855652	622.674194	74.150345	304.060486	821.048401	43.662201	320.262421	1009.509399	589.569397	85.726929	1068.129761	501.060791	142.907349	1119.340088	315.202454	78.162148	1195.500366	93.950348	151.028534	1164.000610	57.873283	208.997711	1358.234619	104.577888	188.186874
309	3.08000000	956.899475	1435.754028	488.958313	942.767517	1463.426025	88.053223	860.966675	1540.250977	293.314148	1019.044128	1435.032837	288.143433	974.903564	1134.816284	600.481689	836.966309	1137.299927	-6.253334	1123.695679	899.058594	584.689270	829.243408	867.306885	-7.721375	998.697266	977.947083	408.192200	1022.357544	975.268188	184.881531	796.873047	1003.691650	266.025970	788.247620	1325.152588	272.996887	1068.149658	1241.540039	287.623047	841.291809	595.526672	468.562927	804.788086	506.398773	408.639679	745.358948	312.651703	473.229309	661.518799	80.724388	350.274048	623.360657	76.450935	304.453125	821.205322	43.578842	320.413513	1019.956726	588.058289	86.633286	1078.412842	499.534088	143.899353	1130.007202	313.728241	79.487022	1206.203857	92.820946	152.843506	1174.697266	56.626648	210.762054	1369.035767	103.608322	190.333176
310	3.09000000	967.404480	1434.870361	487.210754	953.675659	1461.820068	86.396469	871.712280	1539.152832	291.379578	1029.764038	1433.802979	286.589386	985.163025	1134.384155	599.451721	847.835327	1135.386963	-7.056000	1134.095215	898.716614	583.571411	841.848206	865.189911	-6.434898	1008.911926	976.986938	408.046936	1033.216919	973.887329	184.726761	807.440552	1002.214539	265.320435	798.907776	1324.086914	271.309265	1078.741943	1240.323120	286.659943	848.871399	595.577515	468.696075	811.997803	506.451324	408.738220	749.643738	313.638428	473.503601	662.367554	82.709686	350.822266	624.143738	79.009659	304.980774	821.398499	43.508976	320.591309	1031.662354	587.178284	87.439468	1088.843994	498.116455	144.836121	1139.346558	311.867249	80.937988	1214.453491	91.153290	154.765900	1182.765259	55.142254	212.675171	1377.426880	100.849335	192.346786
311	3.10000000	977.964783	1434.184448	485.404419	964.624756	1460.333496	84.670982	882.528381	1538.198608	289.350769	1040.572144	1432.741333	284.944244	995.215332	1134.058105	598.294373	859.114319	1133.503296	-7.918837	1143.970703	898.267853	582.428131	854.916168	863.159058	-5.240013	1019.279419	976.154175	407.876892	1044.239380	972.709534	184.572525	818.120667	1000.939514	264.602905	809.679260	1323.152710	269.582794	1089.470825	1239.288452	285.602753	856.722473	595.710510	468.888824	819.579834	506.533478	408.893250	754.217651	314.737915	473.868134	663.349792	84.914330	351.490051	625.047485	81.854958	305.633728	821.637329	43.461044	320.791992	1044.358765	586.881226	88.134590	1099.232910	496.785187	145.723328	1147.463745	309.685760	82.490143	1220.707031	89.114502	156.678955	1188.620605	53.562641	214.572174	1383.844727	96.525871	194.258774
312	3.11000000	988.581055	1433.719482	483.548401	975.614807	1458.986816	82.874870	893.417419	1537.414307	287.225220	1051.471191	1431.872070	283.212616	1005.048157	1133.855835	597.022400	870.790222	1131.666992	-8.840118	1153.312256	897.728699	581.261932	868.420929	861.228271	-4.156593	1029.805176	975.467041	407.681976	1055.436646	971.775208	184.435135	828.958923	999.915161	263.829712	820.570618	1322.381470	267.816376	1100.346802	1238.466553	284.461517	864.912781	595.908752	469.120544	827.597778	506.636810	409.092163	759.124512	315.950287	474.308960	664.489868	87.367058	352.257996	626.108276	85.025887	306.392029	821.929260	43.441120	321.007660	1057.624756	587.085571	88.721634	1109.362305	495.536682	146.543823	1154.563354	307.335052	84.091171	1225.523315	86.941162	158.455261	1192.791016	52.091732	216.282501	1388.822632	91.005615	196.071243
313	3.12000000	999.253357	1433.498047	481.652679	986.654968	1457.807129	81.005058	904.386108	1536.834473	285.004517	1062.461914	1431.227539	281.402985	1014.653015	1133.794434	595.648071	882.848267	1129.903076	-9.815472	1162.112366	897.118805	580.076599	882.337402	859.413635	-3.200597	1040.492188	974.944214	407.457672	1066.803223	971.133545	184.320602	839.960388	999.174072	262.992279	831.587830	1321.811035	266.009674	1111.378784	1237.895020	283.250000	873.524841	596.155212	469.367340	836.129761	506.754181	409.326202	764.409912	317.283447	474.813782	665.821167	90.106789	353.104248	627.377136	88.573051	307.230011	822.280457	43.445877	321.223846	1070.943481	587.690186	89.204781	1119.036987	494.399780	147.257278	1160.955566	305.035400	85.660149	1229.480103	84.888054	159.968491	1195.833862	50.947323	217.651367	1392.910034	84.740410	197.751755
